<svg width="250" height="48" viewBox="0 0 250 48" fill="none" xmlns="http://www.w3.org/2000/svg"><path d="M171.791 35.782h-2.538l-4.913-23.009h2.538l3.872 18.784 5.629-18.784h2.44l5.63 18.719 3.904-18.719h2.441l-4.914 23.009h-2.538l-5.759-19.532-5.792 19.532zM197.656 35.814c-1.779 0-3.232-.455-4.36-1.365-1.107-.91-1.66-2.09-1.66-3.542 0-1.517.586-2.72 1.757-3.607 1.172-.91 2.755-1.365 4.751-1.365.867 0 1.703.097 2.505.292.825.195 1.584.466 2.278.813v-2.145c0-1.3-.369-2.275-1.106-2.925-.738-.672-1.812-1.007-3.222-1.007-.802 0-1.616.119-2.44.357-.803.217-1.692.574-2.668 1.072l-.911-1.852c1.171-.563 2.256-.975 3.254-1.235a11.82 11.82 0 0 1 2.993-.39c2.061 0 3.644.488 4.751 1.463 1.128.975 1.692 2.372 1.692 4.192v11.212h-2.343v-1.853a7.95 7.95 0 0 1-2.44 1.43c-.868.303-1.812.455-2.831.455zm-3.71-4.972c0 .91.38 1.657 1.139 2.242.781.564 1.779.845 2.994.845.976 0 1.865-.151 2.668-.455a6.147 6.147 0 0 0 2.18-1.43V28.99a6.81 6.81 0 0 0-2.18-.975c-.759-.217-1.605-.325-2.538-.325-1.302 0-2.343.292-3.124.877-.759.563-1.139 1.322-1.139 2.275zM211.7 12.22v23.562h-2.408V12.773l2.408-.552zM218.214 12.22v23.562h-2.408V12.773l2.408-.552zM236.052 33.8a10.774 10.774 0 0 1-2.864 1.527c-.976.325-2.05.487-3.221.487a8.553 8.553 0 0 1-3.319-.65 8.355 8.355 0 0 1-2.668-1.787 8.628 8.628 0 0 1-1.757-2.665 8.603 8.603 0 0 1-.651-3.347c0-1.17.206-2.264.618-3.283a8.953 8.953 0 0 1 1.725-2.664 7.81 7.81 0 0 1 2.538-1.788 7.84 7.84 0 0 1 3.156-.65c1.085 0 2.093.217 3.026.65a7.181 7.181 0 0 1 2.44 1.788 8.281 8.281 0 0 1 1.627 2.664 8.648 8.648 0 0 1 .619 3.283v.747h-13.374c.174 1.603.835 2.936 1.985 3.997 1.15 1.062 2.527 1.593 4.133 1.593.846 0 1.67-.13 2.472-.39.803-.26 1.476-.628 2.018-1.105l1.497 1.592zm-6.508-12.707c-1.41 0-2.636.476-3.677 1.43-1.019.953-1.638 2.177-1.855 3.672h10.901c-.217-1.43-.835-2.633-1.855-3.608-.998-.996-2.169-1.494-3.514-1.494zM242.069 31.882V21.288h-3.514V19.24h3.514v-4.127l2.375-.617v4.744h4.913v2.048h-4.913v9.976c0 .867.195 1.495.586 1.885.39.369 1.03.553 1.919.553.456 0 .857-.033 1.204-.098.369-.065.76-.173 1.172-.325v2.113c-.412.151-.879.26-1.399.325-.499.065-.987.097-1.465.097-1.41 0-2.494-.336-3.253-1.007-.76-.672-1.139-1.647-1.139-2.925zM82.079 35.813V11.797l-4.459.976v23.04h4.459zM57.763 12.773v23.04h4.719v-9.6h4.565v-.006h1.355a2.688 2.688 0 0 0 2.64-2.538v-1.426h-8.56v-5.37h8.758v-.002h1.401a2.779 2.779 0 0 0 2.729-2.626v-1.472H57.763zM89.894 18.598v9.86c0 1.085.315 1.953.944 2.604.651.65 1.508.976 2.571.976.76 0 1.432-.14 2.018-.423a4.044 4.044 0 0 0 1.497-1.269V18.598h4.459v17.215h-4.459v-1.627a7.56 7.56 0 0 1-2.18 1.27 7.8 7.8 0 0 1-2.604.422c-1.953 0-3.558-.629-4.817-1.887-1.258-1.28-1.887-2.907-1.887-4.881V18.598h4.458z" fill="#000"/><path fill-rule="evenodd" clip-rule="evenodd" d="M116.835 35.293c1.106-.39 2.18-1.01 3.222-1.855l-2.93-2.669a4.724 4.724 0 0 1-1.659 1.009 6.006 6.006 0 0 1-2.083.358c-1.172 0-2.192-.325-3.06-.976a4.765 4.765 0 0 1-1.757-2.571h10.636c1.017-.087 2.022-.724 1.97-1.875a9.579 9.579 0 0 0-.629-2.909c-.412-1.128-.998-2.093-1.758-2.896a7.843 7.843 0 0 0-2.668-1.888c-1.02-.477-2.127-.716-3.32-.716a8.82 8.82 0 0 0-3.45.684 8.469 8.469 0 0 0-2.766 1.887 8.63 8.63 0 0 0-1.855 2.799 8.953 8.953 0 0 0-.651 3.417 8.91 8.91 0 0 0 .683 3.482 8.93 8.93 0 0 0 1.92 2.766c.825.781 1.79 1.4 2.897 1.855a9.553 9.553 0 0 0 3.612.683c1.346 0 2.561-.195 3.646-.585zm-6.77-12.367c.738-.629 1.617-.943 2.636-.943.977 0 1.834.325 2.571.976.76.63 1.281 1.443 1.563 2.44h-8.3c.283-1.04.792-1.865 1.53-2.473z" fill="#000"/><path d="M123.927 35.813V18.598h4.459v1.335a7.102 7.102 0 0 1 2.148-1.237 7.806 7.806 0 0 1 2.604-.423c1.953 0 3.558.629 4.817 1.887 1.258 1.259 1.887 2.875 1.887 4.85v10.803h-4.459V25.66c0-1.063-.325-1.92-.976-2.57-.629-.652-1.475-.977-2.538-.977-.738 0-1.411.152-2.018.456a3.833 3.833 0 0 0-1.465 1.236v12.008h-4.459zM144.895 22.56v8.21c0 1.648.477 2.906 1.432 3.774.976.846 2.408 1.27 4.296 1.27.477 0 1.052-.055 1.725-.163a9.958 9.958 0 0 0 1.724-.358v-3.645c-.433.152-.835.26-1.204.325a10.03 10.03 0 0 1-1.171.065c-.868 0-1.476-.162-1.823-.488-.347-.325-.521-.89-.521-1.692V22.56h2.234a2.688 2.688 0 0 0 2.583-2.632v-1.33h-4.817v-5.337l-4.458 1.01v4.327h-3.483v3.962h3.483z" fill="#000"/><path d="M48 0v7.722c0 8.89-7.14 16.112-16.002 16.255l-.269.003H24v7.742C24 40.867 16.74 48 7.795 48H0v-7.952V22.76C0 10.19 10.2 0 22.78 0H48z" fill="#fff"/><path fill-rule="evenodd" clip-rule="evenodd" d="M37.696 0H48v7.722C48 16.867 40.74 24 31.795 24H24v-7.945C24 7.952 29.933 1.234 37.696 0z" fill="#242265" fill-opacity=".8"/><path d="M48 0v7.722c0 8.89-7.14 16.112-16.002 16.255l-.269.003H24v7.742C24 40.867 16.74 48 7.795 48H0v-7.952V22.76C0 10.19 10.2 0 22.78 0H48z" fill="#616EE1" fill-opacity=".8"/></svg>