<svg width="320" height="320" viewBox="0 0 320 320" fill="none" xmlns="http://www.w3.org/2000/svg">
<g clip-path="url(#clip0_103_2)">
<rect width="320" height="320" fill="#F0F0F0"/>
<path d="M250.001 70V98.9584C250.001 132.292 223.227 159.377 189.993 159.915L188.984 159.923L160 159.925V188.956C160 223.251 132.773 250 99.2314 250H70V220.182C70 220.048 70.0004 219.915 70.0013 219.782V155.351C70.0013 108.213 108.247 70 155.425 70H250.001Z" fill="white"/>
<path fill-rule="evenodd" clip-rule="evenodd" d="M211.361 70H250V98.956C250 133.251 222.773 160 189.231 160H188.222H160V130.205C160 99.8196 182.25 74.6258 211.361 70Z" fill="#242265" fill-opacity="0.8"/>
<path d="M250.001 70V98.9584C250.001 132.292 223.227 159.377 189.993 159.915L188.984 159.923L160 159.925V188.956C160 223.251 132.773 250 99.2314 250H70V220.182C70 220.048 70.0004 219.915 70.0013 219.782V155.351C70.0013 108.213 108.247 70 155.425 70H250.001Z" fill="#616EE1" fill-opacity="0.8"/>
</g>
<defs>
<clipPath id="clip0_103_2">
<rect width="320" height="320" fill="white"/>
</clipPath>
</defs>
</svg>
